HIERARCHY
ROOT hip
{
  OFFSET -113.034 82.8786 118.041
  CHANNELS 6 Xposition Yposition Zposition Zrotation Xrotation Yrotation
  JOINT abdomen
  {
    OFFSET 0 20.6881 -0.73152
    CHANNELS 3 Zrotation Xrotation Yrotation
    JOINT chest
    {
      OFFSET 0 11.7043 -0.48768
      CHANNELS 3 Zrotation Xrotation Yrotation
      JOINT neck
      {
        OFFSET 0 22.1894 -2.19456
        CHANNELS 3 Zrotation Xrotation Yrotation
        JOINT head
        {
          OFFSET -0.24384 7.07133 1.2192
          CHANNELS 3 Zrotation Xrotation Yrotation
          JOINT leftEye
          {
            OFFSET 4.14528 8.04674 8.04672
            CHANNELS 3 Zrotation Xrotation Yrotation
            End Site
            {
              OFFSET 1 0 0
            }
          }
          JOINT rightEye
          {
            OFFSET -3.6576 8.04674 8.04672
            CHANNELS 3 Zrotation Xrotation Yrotation
            End Site
            {
              OFFSET 1 0 0
            }
          }
        }
      }
      JOINT rCollar
      {
        OFFSET -2.68224 19.2634 -4.8768
        CHANNELS 3 Zrotation Xrotation Yrotation
        JOINT rShldr
        {
          OFFSET -8.77824 -1.95073 1.46304
          CHANNELS 3 Zrotation Xrotation Yrotation
          JOINT rForeArm
          {
            OFFSET -28.1742 -1.7115 0.48768
            CHANNELS 3 Zrotation Xrotation Yrotation
            JOINT rHand
            {
              OFFSET -22.5879 0.773209 7.07136
              CHANNELS 3 Zrotation Xrotation Yrotation
              JOINT rThumb1
              {
                OFFSET -1.2192 -0.487915 3.41376
                CHANNELS 3 Zrotation Xrotation Yrotation
                JOINT rThumb2
                {
                  OFFSET -3.37035 -0.52449 3.41376
                  CHANNELS 3 Zrotation Xrotation Yrotation
                  End Site
                  {
                    OFFSET -1.78271 -1.18214 1.43049
                  }
                }
              }
              JOINT rIndex1
              {
                OFFSET -7.75947 0.938293 5.60832
                CHANNELS 3 Zrotation Xrotation Yrotation
                JOINT rIndex2
                {
                  OFFSET -2.54057 -0.884171 1.56538
                  CHANNELS 3 Zrotation Xrotation Yrotation
                  End Site
                  {
                    OFFSET -1.62519 -0.234802 1.16502
                  }
                }
              }
              JOINT rMid1
              {
                OFFSET -8.24714 1.18213 3.41376
                CHANNELS 3 Zrotation Xrotation Yrotation
                JOINT rMid2
                {
                  OFFSET -3.10165 -0.590103 1.0647
                  CHANNELS 3 Zrotation Xrotation Yrotation
                  End Site
                  {
                    OFFSET -2.48547 -0.328903 0.83742
                  }
                }
              }
              JOINT rRing1
              {
                OFFSET -8.82822 0.546677 1.51678
                CHANNELS 3 Zrotation Xrotation Yrotation
                JOINT rRing2
                {
                  OFFSET -2.60934 -0.819778 -0.0198488
                  CHANNELS 3 Zrotation Xrotation Yrotation
                  End Site
                  {
                    OFFSET -2.33842 -0.294052 0.168128
                  }
                }
              }
              JOINT rPinky1
              {
                OFFSET -8.27202 -0.0477905 -0.4584
                CHANNELS 3 Zrotation Xrotation Yrotation
                JOINT rPinky2
                {
                  OFFSET -1.82734 -0.647385 -0.700984
                  CHANNELS 3 Zrotation Xrotation Yrotation
                  End Site
                  {
                    OFFSET -1.69225 -0.51767 -0.607171
                  }
                }
              }
            }
          }
        }
      }
      JOINT lCollar
      {
        OFFSET 2.68224 19.2634 -4.8768
        CHANNELS 3 Zrotation Xrotation Yrotation
        JOINT lShldr
        {
          OFFSET 8.77824 -1.95073 1.46304
          CHANNELS 3 Zrotation Xrotation Yrotation
          JOINT lForeArm
          {
            OFFSET 28.1742 -1.7115 0.48768
            CHANNELS 3 Zrotation Xrotation Yrotation
            JOINT lHand
            {
              OFFSET 22.5879 0.773209 7.07136
              CHANNELS 3 Zrotation Xrotation Yrotation
              JOINT lThumb1
              {
                OFFSET 1.2192 -0.487915 3.41376
                CHANNELS 3 Zrotation Xrotation Yrotation
                JOINT lThumb2
                {
                  OFFSET 3.37035 -0.52449 3.41376
                  CHANNELS 3 Zrotation Xrotation Yrotation
                  End Site
                  {
                    OFFSET 1.78271 -1.18214 1.43049
                  }
                }
              }
              JOINT lIndex1
              {
                OFFSET 7.75947 0.938293 5.60832
                CHANNELS 3 Zrotation Xrotation Yrotation
                JOINT lIndex2
                {
                  OFFSET 2.54057 -0.884171 1.56538
                  CHANNELS 3 Zrotation Xrotation Yrotation
                  End Site
                  {
                    OFFSET 1.62519 -0.234802 1.16502
                  }
                }
              }
              JOINT lMid1
              {
                OFFSET 8.24714 1.18213 3.41376
                CHANNELS 3 Zrotation Xrotation Yrotation
                JOINT lMid2
                {
                  OFFSET 3.10165 -0.590103 1.0647
                  CHANNELS 3 Zrotation Xrotation Yrotation
                  End Site
                  {
                    OFFSET 2.48547 -0.328903 0.83742
                  }
                }
              }
              JOINT lRing1
              {
                OFFSET 8.82822 0.546677 1.51678
                CHANNELS 3 Zrotation Xrotation Yrotation
                JOINT lRing2
                {
                  OFFSET 2.60934 -0.819778 -0.0198488
                  CHANNELS 3 Zrotation Xrotation Yrotation
                  End Site
                  {
                    OFFSET 2.33842 -0.294052 0.168128
                  }
                }
              }
              JOINT lPinky1
              {
                OFFSET 8.27202 -0.0477905 -0.4584
                CHANNELS 3 Zrotation Xrotation Yrotation
                JOINT lPinky2
                {
                  OFFSET 1.82734 -0.647385 -0.700984
                  CHANNELS 3 Zrotation Xrotation Yrotation
                  End Site
                  {
                    OFFSET 1.69225 -0.51767 -0.607171
                  }
                }
              }
            }
          }
        }
      }
    }
  }
  JOINT rButtock
  {
    OFFSET -8.77824 4.35084 1.2192
    CHANNELS 3 Zrotation Xrotation Yrotation
    JOINT rThigh
    {
      OFFSET 0 -1.70687 -2.19456
      CHANNELS 3 Zrotation Xrotation Yrotation
      JOINT rShin
      {
        OFFSET 0 -36.8199 0.73152
        CHANNELS 3 Zrotation Xrotation Yrotation
        JOINT rFoot
        {
          OFFSET 0.73152 -45.1104 -5.12064
          CHANNELS 3 Zrotation Xrotation Yrotation
          End Site
          {
            OFFSET -1.1221 -3.69964 12.103
          }
        }
      }
    }
  }
  JOINT lButtock
  {
    OFFSET 8.77824 4.35084 1.2192
    CHANNELS 3 Zrotation Xrotation Yrotation
    JOINT lThigh
    {
      OFFSET 0 -1.70687 -2.19456
      CHANNELS 3 Zrotation Xrotation Yrotation
      JOINT lShin
      {
        OFFSET 0 -36.8199 0.73152
        CHANNELS 3 Zrotation Xrotation Yrotation
        JOINT lFoot
        {
          OFFSET -0.73152 -45.1104 -5.12064
          CHANNELS 3 Zrotation Xrotation Yrotation
          End Site
          {
            OFFSET 1.1221 -3.69964 12.103
          }
        }
      }
    }
  }
}
MOTION
Frames:	9
Frame Time:	0.00833333
29.433 82.8515 -7.96205 5.15287 -6.90893 -46.5495 -9.01099 12.8272 1.19212 2.2289 -5.0658 0.105204 -10.8247 -3.82977 -4.46255 10.8548 1.31009 -5.38557 -0 0 0 -0 0 0 9.53159e-014 2.28881e-013 1.19286e-013 79.6322 21.3566 0.20302 -16.8252 -9.47714 31.4349 -0.0195121 3.98268 0.560642 -4.80876e-010 -2.37929e-010 -3.17521e-010 -8.29835e-010 -4.12024e-010 -5.46404e-010 -4.80872e-010 -2.3793e-010 -3.17527e-010 7.73091 5.47488 0.417314 -4.80874e-010 -2.37934e-010 -3.17518e-010 2.90554 0.965183 0.102902 -4.80868e-010 -2.37935e-010 -3.17521e-010 10.2786 0.731801 0.0259123 -4.80883e-010 -2.37936e-010 -3.17517e-010 2.22167 -0.733487 -0.20892 9.52235e-014 2.28883e-013 1.19135e-013 -73.6043 26.1756 -5.29901 16.8485 -9.50015 -31.4847 0.0712227 7.59181 -1.07331 -5.57963e-010 -9.85553e-010 -6.20435e-010 -9.66925e-010 -1.69953e-009 -1.06939e-009 -5.57964e-010 -9.85562e-010 -6.20429e-010 -7.73091 5.47488 -0.417314 -5.57961e-010 -9.85553e-010 -6.20431e-010 -2.90554 0.965183 -0.102902 -5.57969e-010 -9.85553e-010 -6.20437e-010 -10.2786 0.731801 -0.0259123 -5.57959e-010 -9.85553e-010 -6.20443e-010 -2.22167 -0.733487 0.20892 -2.03217e-016 0 -3.88251e-019 -12.0833 -36.1868 -8.00246 -0.498847 46.7833 0.933616 -1.74688 -3.26041 -7.34959 2.03217e-016 0 3.88251e-019 -11.8976 0.686438 -1.0913 -0.0236831 16.374 -0.542885 -1.01509 -10.3708 -7.85468 
28.8231 82.9283 -7.42016 5.28304 -6.83314 -46.4206 -9.01892 12.7012 1.01428 2.27748 -5.02632 0.0656745 -10.827 -3.86358 -4.50095 10.8039 1.21112 -5.44202 -0 0 0 -0 0 0 9.26721e-014 2.23034e-013 -2.41623e-013 79.5827 21.3114 0.270775 -16.7977 -9.45002 31.3754 -0.0193878 3.9719 0.559119 1.07902e-009 -2.07619e-009 -1.23177e-009 1.86302e-009 -3.59635e-009 -2.13837e-009 1.07903e-009 -2.07619e-009 -1.23177e-009 7.73091 5.47488 0.417314 1.07902e-009 -2.07619e-009 -1.23176e-009 2.90554 0.965183 0.102902 1.07903e-009 -2.07619e-009 -1.23177e-009 10.2786 0.731801 0.0259123 1.07901e-009 -2.07619e-009 -1.23176e-009 2.22167 -0.733487 -0.20892 9.26013e-014 2.23038e-013 -2.41772e-013 -73.2855 26.3899 -5.75496 16.8842 -9.53539 -31.5623 0.0712487 7.59363 -1.07357 1.10672e-009 -2.24249e-009 -4.14954e-010 1.91237e-009 -3.89674e-009 -7.27063e-010 1.10672e-009 -2.24251e-009 -4.14948e-010 -7.73091 5.47488 -0.417314 1.10672e-009 -2.24249e-009 -4.14951e-010 -2.90554 0.965183 -0.102902 1.10672e-009 -2.2425e-009 -4.14957e-010 -10.2786 0.731801 -0.0259123 1.10673e-009 -2.2425e-009 -4.14964e-010 -2.22167 -0.733487 0.20892 -2.03217e-016 0 -3.88251e-019 -11.9794 -36.278 -7.63991 -0.429114 44.0665 0.848417 -1.64615 -2.34231 -7.56173 2.03217e-016 0 3.88251e-019 -11.884 1.86485 -1.15712 -0.0244979 14.9856 -0.541963 -0.964884 -10.0278 -7.86107 
28.1795 83.0082 -6.92719 5.415 -6.78838 -46.2613 -9.06611 12.6111 0.816551 2.37369 -5.04066 0.0203283 -10.8195 -3.94691 -4.47249 10.8429 1.32312 -5.38577 -0 0 0 -0 0 0 1.13412e-013 2.72531e-013 -8.13059e-013 79.5105 21.2764 0.284176 -16.772 -9.42471 31.3199 -0.0203044 4.07013 0.57299 3.80406e-009 -5.12741e-009 -2.65335e-009 6.56848e-009 -8.88202e-009 -4.61552e-009 3.80406e-009 -5.12741e-009 -2.65336e-009 7.73091 5.47488 0.417314 3.80406e-009 -5.12741e-009 -2.65335e-009 2.90554 0.965183 0.102902 3.80407e-009 -5.12741e-009 -2.65335e-009 10.2786 0.731801 0.0259123 3.80405e-009 -5.12741e-009 -2.65335e-009 2.22167 -0.733487 -0.20892 1.13352e-013 2.72537e-013 -8.13207e-013 -73.001 26.649 -6.19719 16.8934 -9.54436 -31.5825 0.0707729 7.56825 -1.06994 3.99913e-009 -4.3764e-009 -6.78146e-011 6.91533e-009 -7.62904e-009 -1.49047e-010 3.99913e-009 -4.37641e-009 -6.78091e-011 -7.73091 5.47488 -0.417314 3.99913e-009 -4.3764e-009 -6.78122e-011 -2.90554 0.965183 -0.102902 3.99913e-009 -4.3764e-009 -6.78177e-011 -10.2786 0.731801 -0.0259123 3.99914e-009 -4.3764e-009 -6.78265e-011 -2.22167 -0.733487 0.20892 -2.03217e-016 0 -3.88251e-019 -11.8922 -36.2533 -7.16906 -0.366283 41.2711 0.769976 -1.49255 -1.18886 -7.68051 2.03217e-016 0 3.88251e-019 -11.9037 3.35673 -1.39121 -0.0294613 13.0598 -0.534356 -0.84685 -9.37918 -7.8032 
27.5372 83.1109 -6.38899 5.55208 -6.76251 -46.0762 -9.13911 12.5413 0.603442 2.4965 -5.08782 -0.0298741 -10.7975 -4.06811 -4.40079 10.9273 1.57663 -5.25867 -0 0 0 -0 0 0 1.44376e-013 3.46975e-013 -1.56534e-012 79.4293 21.2429 0.261513 -16.7442 -9.39739 31.26 -0.0220622 4.24432 0.597598 7.50479e-009 -9.17623e-009 -4.48613e-009 1.29592e-008 -1.58959e-008 -7.81027e-009 7.5048e-009 -9.17623e-009 -4.48614e-009 7.73091 5.47488 0.417314 7.50479e-009 -9.17623e-009 -4.48613e-009 2.90554 0.965183 0.102902 7.5048e-009 -9.17623e-009 -4.48614e-009 10.2786 0.731801 0.0259123 7.50478e-009 -9.17623e-009 -4.48613e-009 2.22167 -0.733487 -0.20892 1.44319e-013 3.46982e-013 -1.56548e-012 -72.7369 26.9332 -6.63033 16.8842 -9.53519 -31.5626 0.0700846 7.53111 -1.06463 7.92486e-009 -7.18507e-009 4.19937e-010 1.37057e-008 -1.25435e-008 6.64231e-010 7.92486e-009 -7.18508e-009 4.19941e-010 -7.73091 5.47488 -0.417314 7.92487e-009 -7.18507e-009 4.19938e-010 -2.90554 0.965183 -0.102902 7.92486e-009 -7.18507e-009 4.19932e-010 -10.2786 0.731801 -0.0259123 7.92487e-009 -7.18507e-009 4.19921e-010 -2.22167 -0.733487 0.20892 -2.03217e-016 0 -3.88251e-019 -11.8164 -36.1249 -6.60617 -0.310546 38.3853 0.696791 -1.29444 0.184279 -7.73022 2.03217e-016 0 3.88251e-019 -11.9322 5.08066 -1.75204 -0.0360975 10.7268 -0.521507 -0.679918 -8.49463 -7.69415 
26.9368 83.2126 -5.85716 5.6854 -6.74109 -45.8655 -9.20875 12.4799 0.372209 2.62374 -5.13028 -0.0861397 -10.7656 -4.20447 -4.32076 11.0082 1.85612 -5.11857 -0 0 0 -0 0 0 1.59239e-013 3.85091e-013 -2.19327e-012 79.3567 21.1937 0.227955 -16.7124 -9.36626 31.1916 -0.0242529 4.44563 0.626058 1.07281e-008 -1.26174e-008 -5.98529e-009 1.85257e-008 -2.18574e-008 -1.04248e-008 1.07281e-008 -1.26174e-008 -5.9853e-009 7.73091 5.47488 0.417314 1.07281e-008 -1.26174e-008 -5.98529e-009 2.90554 0.965183 0.102902 1.07281e-008 -1.26174e-008 -5.98529e-009 10.2786 0.731801 0.0259123 1.07281e-008 -1.26174e-008 -5.98528e-009 2.22167 -0.733487 -0.20892 1.59182e-013 3.851e-013 -2.19342e-012 -72.4898 27.2061 -7.04171 16.8752 -9.52632 -31.5431 0.0691164 7.47914 -1.0572 1.13196e-008 -9.44875e-009 8.86664e-010 1.95779e-008 -1.65078e-008 1.44529e-009 1.13196e-008 -9.44876e-009 8.86667e-010 -7.73091 5.47488 -0.417314 1.13196e-008 -9.44875e-009 8.86664e-010 -2.90554 0.965183 -0.102902 1.13196e-008 -9.44875e-009 8.86659e-010 -10.2786 0.731801 -0.0259123 1.13196e-008 -9.44875e-009 8.86646e-010 -2.22167 -0.733487 0.20892 -2.03217e-016 0 -3.88251e-019 -11.7383 -35.9428 -5.92798 -0.263829 35.5485 0.633228 -1.12297 1.34332 -7.81222 2.03217e-016 0 3.88251e-019 -11.9488 6.78807 -2.18209 -0.042004 8.43489 -0.50564 -0.506701 -7.58858 -7.53281 
26.3144 83.3395 -5.32196 5.80586 -6.70951 -45.6296 -9.24608 12.4148 0.120151 2.73336 -5.13054 -0.149663 -10.7286 -4.3333 -4.26732 11.0386 2.04591 -5.02324 -0 0 0 -0 0 0 1.31677e-013 3.25604e-013 -2.39168e-012 79.3104 21.1112 0.208661 -16.6748 -9.32954 31.1104 -0.0263096 4.62524 0.651465 1.20209e-008 -1.38457e-008 -6.40598e-009 2.07589e-008 -2.39857e-008 -1.11611e-008 1.20209e-008 -1.38457e-008 -6.406e-009 7.73091 5.47488 0.417314 1.20209e-008 -1.38457e-008 -6.40598e-009 2.90554 0.965183 0.102902 1.20209e-008 -1.38457e-008 -6.40599e-009 10.2786 0.731801 0.0259123 1.20209e-008 -1.38457e-008 -6.40598e-009 2.22167 -0.733487 -0.20892 1.31622e-013 3.25614e-013 -2.39183e-012 -72.2579 27.4315 -7.41791 16.8851 -9.53618 -31.5642 0.0678068 7.40927 -1.04721 1.26191e-008 -9.9477e-009 1.17073e-009 2.1826e-008 -1.73893e-008 1.92664e-009 1.26191e-008 -9.94771e-009 1.17074e-009 -7.73091 5.47488 -0.417314 1.26191e-008 -9.9477e-009 1.17073e-009 -2.90554 0.965183 -0.102902 1.26191e-008 -9.9477e-009 1.17073e-009 -10.2786 0.731801 -0.0259123 1.26191e-008 -9.9477e-009 1.17071e-009 -2.22167 -0.733487 0.20892 -2.03217e-016 0 -3.88251e-019 -11.6426 -35.7562 -5.11021 -0.226294 32.8999 0.582384 -1.04462 1.85382 -8.02336 2.03217e-016 0 3.88251e-019 -11.9464 8.23079 -2.62198 -0.0455273 6.63251 -0.488193 -0.368009 -6.87565 -7.31603 
25.6845 83.4217 -4.80959 5.91776 -6.66397 -45.3546 -9.25137 12.341 -0.166561 2.82137 -5.06702 -0.225068 -10.6752 -4.4622 -4.25234 10.9951 2.11445 -4.99488 -0 0 0 -0 0 0 2.10429e-014 7.54749e-014 -1.91103e-012 79.3051 20.9691 0.221716 -16.6274 -9.28351 31.0083 -0.0282513 4.79374 0.675306 1.04282e-008 -1.17044e-008 -5.11192e-009 1.80099e-008 -2.02777e-008 -8.91258e-009 1.04282e-008 -1.17044e-008 -5.11193e-009 7.73091 5.47488 0.417314 1.04282e-008 -1.17044e-008 -5.11192e-009 2.90554 0.965183 0.102902 1.04282e-008 -1.17044e-008 -5.11192e-009 10.2786 0.731801 0.0259123 1.04282e-008 -1.17044e-008 -5.11191e-009 2.22167 -0.733487 -0.20892 2.09932e-014 7.5483e-014 -1.91119e-012 -72.033 27.5888 -7.75552 16.9237 -9.57464 -31.6475 0.0659179 7.30778 -1.0327 1.07427e-008 -7.60153e-009 1.21198e-009 1.85812e-008 -1.33037e-008 2.01261e-009 1.07427e-008 -7.60154e-009 1.21199e-009 -7.73091 5.47488 -0.417314 1.07427e-008 -7.60152e-009 1.21199e-009 -2.90554 0.965183 -0.102902 1.07427e-008 -7.60153e-009 1.21198e-009 -10.2786 0.731801 -0.0259123 1.07427e-008 -7.60153e-009 1.21197e-009 -2.22167 -0.733487 0.20892 -2.03217e-016 0 -3.88251e-019 -11.5201 -35.5589 -4.05226 -0.194458 30.3969 0.542425 -1.10012 1.49318 -8.4375 2.03217e-016 0 3.88251e-019 -11.9446 9.32151 -3.07506 -0.046534 5.46812 -0.466462 -0.272274 -6.42165 -7.00247 
25.0578 83.4585 -4.28755 6.02337 -6.61172 -45.0451 -9.23762 12.2653 -0.482073 2.89917 -4.96359 -0.310258 -10.6072 -4.59872 -4.25637 10.907 2.12363 -5.00037 -0 0 0 -0 0 0 -1.47414e-013 -3.07051e-013 -9.70147e-013 79.3282 20.7837 0.24985 -16.5723 -9.23011 30.89 -0.030343 4.96928 0.700157 6.91402e-009 -7.29262e-009 -2.64623e-009 1.19435e-008 -1.2637e-008 -4.62485e-009 6.91402e-009 -7.29262e-009 -2.64624e-009 7.73091 5.47488 0.417314 6.91402e-009 -7.29262e-009 -2.64623e-009 2.90554 0.965183 0.102902 6.91403e-009 -7.29262e-009 -2.64623e-009 10.2786 0.731801 0.0259123 6.91402e-009 -7.29262e-009 -2.64622e-009 2.22167 -0.733487 -0.20892 -1.47458e-013 -3.07045e-013 -9.70318e-013 -71.8208 27.7016 -8.06055 16.9793 -9.63005 -31.768 0.0636115 7.18061 -1.01453 6.74587e-009 -3.31248e-009 1.10231e-009 1.16689e-008 -5.82693e-009 1.85398e-009 6.74587e-009 -3.31248e-009 1.10232e-009 -7.73091 5.47488 -0.417314 6.74588e-009 -3.31247e-009 1.10231e-009 -2.90554 0.965183 -0.102902 6.74587e-009 -3.31248e-009 1.10231e-009 -10.2786 0.731801 -0.0259123 6.74588e-009 -3.31248e-009 1.10229e-009 -2.22167 -0.733487 0.20892 -2.03217e-016 0 -3.88251e-019 -11.3879 -35.3234 -2.80247 -0.166205 27.9918 0.509977 -1.26374 0.531169 -8.98643 2.03217e-016 0 3.88251e-019 -11.9442 10.1993 -3.56611 -0.0459814 4.69295 -0.440187 -0.199092 -6.109 -6.60634 
24.4129 83.4604 -3.75621 6.1105 -6.5548 -44.729 -9.19486 12.1937 -0.799571 2.96782 -4.85088 -0.396352 -10.5496 -4.72004 -4.26731 10.8076 2.0978 -5.01447 -0 0 0 -0 0 0 -3.01175e-013 -6.56318e-013 3.36556e-014 79.3564 20.6026 0.265258 -16.5164 -9.17605 30.7703 -0.0321588 5.11446 0.720721 2.90423e-009 -2.38842e-009 -3.3245e-011 5.02084e-009 -4.14297e-009 -7.89645e-011 2.90423e-009 -2.38842e-009 -3.32526e-011 7.73091 5.47488 0.417314 2.90423e-009 -2.38843e-009 -3.32397e-011 2.90554 0.965183 0.102902 2.90423e-009 -2.38842e-009 -3.32487e-011 10.2786 0.731801 0.0259123 2.90422e-009 -2.38842e-009 -3.32382e-011 2.22167 -0.733487 -0.20892 -3.01215e-013 -6.56314e-013 3.34704e-014 -71.6409 27.7998 -8.33358 17.0381 -9.68869 -31.8959 0.0613902 7.05415 -0.996482 2.26842e-009 1.16526e-009 9.08146e-010 3.92522e-009 1.98317e-009 1.55292e-009 2.26842e-009 1.16527e-009 9.0816e-010 -7.73091 5.47488 -0.417314 2.26842e-009 1.16528e-009 9.08156e-010 -2.90554 0.965183 -0.102902 2.26841e-009 1.16526e-009 9.08146e-010 -10.2786 0.731801 -0.0259123 2.26842e-009 1.16526e-009 9.08137e-010 -2.22167 -0.733487 0.20892 -2.03217e-016 0 -3.88251e-019 -11.264 -35.0719 -1.55643 -0.142606 25.8167 0.485089 -1.49784 -0.72852 -9.55331 2.03217e-016 0 3.88251e-019 -11.9203 10.956 -4.06594 -0.0446006 4.15954 -0.41413 -0.142407 -5.87778 -6.20656 
